name C:\Users\Nicos\Desktop\Gil_twoSteps\Study2\ExperimentalData\IK_Splined\twoSteps_IK_BSplines_80_meshInts_study2_p02_s_01_lowIK_modROI.mot
datacolumns 38
datarows 15
range 0.32800000 0.34786497
endheader
                time	         pelvis_tilt	         pelvis_list	     pelvis_rotation	           pelvis_tx	           pelvis_ty	           pelvis_tz	       hip_flexion_r	     hip_adduction_r	      hip_rotation_r	        knee_angle_r	       ankle_angle_r	    subtalar_angle_r	         mtp_angle_r	       hip_flexion_l	     hip_adduction_l	      hip_rotation_l	        knee_angle_l	       ankle_angle_l	    subtalar_angle_l	         mtp_angle_l	    lumbar_extension	      lumbar_bending	     lumbar_rotation	          arm_flex_r	           arm_add_r	           arm_rot_r	        elbow_flex_r	           pro_sup_r	        wrist_flex_r	         wrist_dev_r	          arm_flex_l	           arm_add_l	           arm_rot_l	        elbow_flex_l	           pro_sup_l	        wrist_flex_l	         wrist_dev_l	
          0.32800000	        -23.90140344	         -6.37801369	          9.47041417	         -1.36069396	          0.83286872	          0.29608431	         79.48628439	         -5.90271484	         -3.03693491	        -86.16308765	          5.89124111	        -23.62147805	          0.15472100	         -5.33914888	         -4.89944969	         10.00863695	        -37.52244009	        -33.61646485	          6.85912996	          6.80517817	        -21.33373207	         17.03224389	         -0.33416441	        -65.85472849	          7.89614105	        -31.54145799	         65.10100290	         72.01467743	         -3.60748593	          8.11979969	         31.24392725	         -6.62956080	         22.80066073	        139.51484235	         49.06275305	         -6.15849247	          5.23909147	
          0.32884503	        -23.78306062	         -6.23629060	          9.39079568	         -1.35647810	          0.83344432	          0.29610731	         78.87883900	         -5.88835829	         -2.96629243	        -85.84299172	          5.78081774	        -23.51465753	          0.23997003	         -5.15499977	         -4.70130786	          9.67286168	        -38.13709240	        -33.63524495	          7.26419645	          7.01835437	        -21.56199519	         16.92378780	         -0.43948275	        -65.36147517	          7.55780641	        -31.37559288	         65.26309057	         71.99965581	         -3.58347500	          8.15276379	         30.33093412	         -6.80309653	         22.36838052	        139.07354616	         49.06806022	         -6.25392514	          5.29217366	
          0.33151497	        -23.41085865	         -5.81372963	          9.14651282	         -1.34316425	          0.83522686	          0.29620307	         76.93407809	         -5.85419143	         -2.77991022	        -84.78841292	          5.49075196	        -23.13896743	          0.58147103	         -4.54000193	         -4.12957792	          8.57562851	        -40.12305683	        -33.66602666	          8.13718823	          7.61843352	        -22.27218824	         16.59471584	         -0.78353385	        -63.78530419	          6.47898216	        -30.79718992	         65.78746514	         71.96210694	         -3.50787417	          8.25582001	         27.45566260	         -7.31231487	         20.92932615	        137.57089112	         49.03778370	         -6.55292282	          5.46407536	
          0.33345000	        -23.14142796	         -5.51220477	          8.97083319	         -1.33351632	          0.83651198	          0.29627680	         75.51985075	         -5.83152544	         -2.65172570	        -84.01602121	          5.29154463	        -22.85953793	          0.84248323	         -4.08807528	         -3.72539144	          7.77361279	        -41.57059801	        -33.68298798	          8.69369438	          8.03957918	        -22.78483235	         16.35877040	         -1.03499702	        -62.63966926	          5.69526994	        -30.36781983	         66.16979576	         71.93675003	         -3.45313227	          8.33030406	         25.37358726	         -7.67404915	         19.87266618	        136.46156122	         49.00703097	         -6.76914597	          5.58944369	
          0.33345000	        -23.14142796	         -5.51220477	          8.97083319	         -1.33351632	          0.83651198	          0.29627680	         75.51985075	         -5.83152544	         -2.65172570	        -84.01602121	          5.29154463	        -22.85953793	          0.84248323	         -4.08807528	         -3.72539144	          7.77361279	        -41.57059801	        -33.68298798	          8.69369438	          8.03957918	        -22.78483235	         16.35877040	         -1.03499702	        -62.63966926	          5.69526994	        -30.36781983	         66.16979576	         71.93675003	         -3.45313227	          8.33030406	         25.37358726	         -7.67404915	         19.87266618	        136.46156122	         49.00703097	         -6.76914597	          5.58944369	
          0.33429503	        -23.02376740	         -5.38052865	          8.89411377	         -1.32930306	          0.83707320	          0.29630900	         74.90225671	         -5.82162718	         -2.59574743	        -83.67871722	          5.20455065	        -22.73751088	          0.95646744	         -3.89071860	         -3.54888292	          7.42337198	        -42.20274024	        -33.69039500	          8.93672100	          8.22349378	        -23.00870438	         16.25573286	         -1.14481116	        -62.13936970	          5.35302228	        -30.18031361	         66.33675981	         71.92567665	         -3.42922644	          8.36283130	         24.46434353	         -7.83201876	         19.41122205	        135.97711609	         48.99360123	         -6.86357076	          5.64419212	
          0.33696497	        -22.65714455	         -5.00263359	          8.66819684	         -1.31600328	          0.83876149	          0.29649183	         72.90537385	         -5.79482041	         -2.47206603	        -82.57806094	          5.19187858	        -22.28985656	          1.38431889	         -3.21839802	         -3.07814237	          6.28884918	        -44.25966263	        -33.62301363	          9.07956496	          8.64361781	        -23.68563915	         15.94108141	         -1.50234396	        -60.51564370	          4.28511910	        -29.51486205	         66.85988205	         71.90917196	         -3.35676450	          8.46192504	         21.66028159	         -8.27264581	         17.88081219	        134.23388283	         48.88935745	         -7.15243786	          5.82306346	
          0.33890000	        -22.39218417	         -4.73430874	          8.50686423	         -1.30636614	          0.83997272	          0.29663614	         71.45151491	         -5.77604264	         -2.39017032	        -81.77528405	          5.22085863	        -21.95638249	          1.70425738	         -2.72404063	         -2.74963238	          5.46254787	        -45.75908338	        -33.56096501	          9.09211424	          8.92467008	        -24.17181785	         15.71462670	         -1.76300183	        -59.33260004	          3.51312090	        -29.02195255	         67.23836943	         71.89990056	         -3.30469504	          8.53320722	         19.63806306	         -8.58347403	         16.76111211	        132.93954033	         48.80481024	         -7.36041341	          5.95355668	
          0.33890000	        -22.39218417	         -4.73430874	          8.50686423	         -1.30636614	          0.83997272	          0.29663614	         71.45151491	         -5.77604264	         -2.39017032	        -81.77528405	          5.22085863	        -21.95638249	          1.70425738	         -2.72404063	         -2.74963238	          5.46254787	        -45.75908338	        -33.56096501	          9.09211424	          8.92467008	        -24.17181785	         15.71462670	         -1.76300183	        -59.33260004	          3.51312090	        -29.02195255	         67.23836943	         71.89990056	         -3.30469504	          8.53320722	         19.63806306	         -8.58347403	         16.76111211	        132.93954033	         48.80481024	         -7.36041341	          5.95355668	
          0.33974503	        -22.27647579	         -4.61713109	          8.43641016	         -1.30215759	          0.84050167	          0.29669915	         70.81661371	         -5.76784238	         -2.35440641	        -81.42471084	          5.23351424	        -21.81075414	          1.84397474	         -2.50815443	         -2.60617184	          5.10170152	        -46.41388145	        -33.53386833	          9.09759453	          9.04740581	        -24.38413242	         15.61573377	         -1.87683129	        -58.81596406	          3.17598876	        -28.80669864	         67.40365513	         71.89585173	         -3.28195628	          8.56433619	         18.75495885	         -8.71921293	         16.27213832	        132.37430008	         48.76788842	         -7.45123648	          6.01054315	
          0.34241497	        -21.91966155	         -4.29747906	          8.23994061	         -1.28887811	          0.84203565	          0.29704293	         68.74421674	         -5.73727523	         -2.30984661	        -80.29663994	          5.76467204	        -21.26550865	          2.33811941	         -1.76293228	         -2.27185677	          3.94677510	        -48.55582517	        -33.28959844	          8.27981496	          9.18123359	        -25.00352591	         15.30998217	         -2.24524738	        -57.11348488	          2.15178059	        -28.03698668	         67.90167646	         71.91046973	         -3.21632474	          8.65631485	         16.09988566	         -9.07092526	         14.66172080	        130.26739113	         48.57829097	         -7.72141318	          6.19834204	
          0.34435000	        -21.66200575	         -4.07125015	          8.10035986	         -1.27925578	          0.84313264	          0.29730764	         67.23512339	         -5.71462117	         -2.28490904	        -79.47688315	          6.20242445	        -20.86119486	          2.70191266	         -1.21605236	         -2.04235144	          3.10815726	        -50.11604033	        -33.09551041	          7.59736479	          9.25092437	        -25.44689928	         15.08911152	         -2.51319685	        -55.87208422	          1.41389740	        -27.46951060	         68.26001197	         71.92401056	         -3.16942656	          8.72229050	         14.19016571	         -9.31753187	         13.48754233	        128.70591584	         48.43304055	         -7.91541782	          6.33528085	
          0.34435000	        -21.66200575	         -4.07125015	          8.10035986	         -1.27925578	          0.84313264	          0.29730764	         67.23512339	         -5.71462117	         -2.28490904	        -79.47688315	          6.20242445	        -20.86119486	          2.70191266	         -1.21605236	         -2.04235144	          3.10815726	        -50.11604033	        -33.09551041	          7.59736479	          9.25092437	        -25.44689928	         15.08911152	         -2.51319685	        -55.87208422	          1.41389740	        -27.46951060	         68.26001197	         71.92401056	         -3.16942656	          8.72229050	         14.19016571	         -9.31753187	         13.48754233	        128.70591584	         48.43304055	         -7.91541782	          6.33528085	
          0.34519503	        -21.54948728	         -3.97245583	          8.03940485	         -1.27505371	          0.84361170	          0.29742323	         66.57610129	         -5.70472813	         -2.27401879	        -79.11889480	          6.39359122	        -20.68463075	          2.86078142	         -0.97722952	         -1.94212631	          2.74193227	        -50.79738735	        -33.01075203	          7.29933833	          9.28135839	        -25.64052073	         14.99265715	         -2.63021057	        -55.32996370	          1.09166330	        -27.22169341	         68.41649733	         71.92992385	         -3.14894610	          8.75110211	         13.35618970	         -9.42522515	         12.97477779	        128.02401852	         48.36960959	         -8.00013979	          6.39508212	
          0.34786497	        -21.21739756	         -3.71656572	          7.86584668	         -1.26182097	          0.84494613	          0.29798101	         64.44485102	         -5.65272164	         -2.30129908	        -77.98815669	          7.58334019	        -20.04406134	          3.36127712	         -0.13901970	         -1.75543850	          1.58754983	        -53.02071837	        -32.56247770	          5.47876960	          9.06294753	        -26.17568913	         14.68551615	         -2.99146684	        -53.52906645	          0.14007049	        -26.34865999	         68.87809183	         71.97720071	         -3.09323554	          8.83379077	         10.91818582	         -9.68024121	         11.31653411	        125.47931723	         48.10075666	         -8.24726383	          6.59098858	
